<svg xmlns="http://www.w3.org/2000/svg" width="13.333" height="13.333" viewBox="0 0 13.333 13.333">
  <path id="Icon_material-library-books" data-name="Icon material-library-books" d="M2.667,4H1.333v9.333a1.337,1.337,0,0,0,1.333,1.333H12V13.333H2.667ZM13.333,1.333h-8A1.337,1.337,0,0,0,4,2.667v8A1.337,1.337,0,0,0,5.333,12h8a1.337,1.337,0,0,0,1.333-1.333v-8a1.337,1.337,0,0,0-1.333-1.333Zm-.667,6H6V6h6.667V7.333ZM10,10H6V8.667h4Zm2.667-5.333H6V3.333h6.667V4.667Z" transform="translate(-1.333 -1.333)" fill="#656666"/>
</svg>
