<svg xmlns="http://www.w3.org/2000/svg" width="20" height="16" viewBox="0 0 20 16">
  <path id="Icon_awesome-chalkboard-teacher" data-name="Icon awesome-chalkboard-teacher" d="M6.5,11a.715.715,0,0,0-.221.034A4.122,4.122,0,0,1,5,11.25a4.126,4.126,0,0,1-1.28-.216A.713.713,0,0,0,3.5,11,3.5,3.5,0,0,0,0,14.519,1.5,1.5,0,0,0,1.5,16h7A1.5,1.5,0,0,0,10,14.519,3.5,3.5,0,0,0,6.5,11ZM5,10A3,3,0,1,0,2,7,3,3,0,0,0,5,10ZM18.5,0H6.5A1.527,1.527,0,0,0,5,1.55V3a3.955,3.955,0,0,1,2,.556V2H18v9H16V9H12v2H9.618a3.983,3.983,0,0,1,1.24,2H18.5A1.527,1.527,0,0,0,20,11.45V1.55A1.527,1.527,0,0,0,18.5,0Z" transform="translate(0)" fill="#656666"/>
</svg>
