<svg xmlns="http://www.w3.org/2000/svg" width="12" height="16" viewBox="0 0 12 16">
  <path id="Icon_awesome-code-branch" data-name="Icon awesome-code-branch" d="M12,4.5A2.5,2.5,0,1,0,8.8,6.9a1.923,1.923,0,0,1-.344,1.153c-.481.6-1.541.7-2.662.8a7.543,7.543,0,0,0-2.541.528v-4.5a2.5,2.5,0,1,0-1.5,0v6.228a2.506,2.506,0,1,0,1.65.056,1.1,1.1,0,0,1,.466-.419,6.287,6.287,0,0,1,2.066-.4c1.319-.122,2.812-.262,3.694-1.356A3.365,3.365,0,0,0,10.3,6.872,2.51,2.51,0,0,0,12,4.5ZM2.5,2a.5.5,0,1,1-.5.5A.5.5,0,0,1,2.5,2Zm0,12a.5.5,0,1,1,.5-.5A.5.5,0,0,1,2.5,14Zm7-10a.5.5,0,1,1-.5.5A.5.5,0,0,1,9.5,4Z" fill="#656666"/>
</svg>
