<svg xmlns="http://www.w3.org/2000/svg" width="14.201" height="14.792" viewBox="0 0 14.201 14.792">
  <g id="bell-outline-badged" transform="translate(-1.355 -0.445)">
    <path id="Path_9" data-name="Path 9" d="M8,15.236a1.187,1.187,0,0,0,1.147-1.014H6.809A1.187,1.187,0,0,0,8,15.236Z" fill="#656666"/>
    <path id="Path_10" data-name="Path 10" d="M14.449,12.369a6.4,6.4,0,0,1-1.116-1.3,5.613,5.613,0,0,1-.6-2.138v-2.2a4.853,4.853,0,0,0-.071-.8,3.307,3.307,0,0,1-1-.373,3.951,3.951,0,0,1,.178,1.173v2.2a6.329,6.329,0,0,0,.733,2.6,7.187,7.187,0,0,0,1.084,1.333H2.28a7.187,7.187,0,0,0,1.084-1.333,6.329,6.329,0,0,0,.733-2.6v-2.2A3.911,3.911,0,0,1,8,2.8a3.827,3.827,0,0,1,2.116.64A3.329,3.329,0,0,1,10,2.667v-.28a4.7,4.7,0,0,0-1.476-.444V1.382a.594.594,0,0,0-1.187,0v.582A4.8,4.8,0,0,0,3.2,6.733v2.2a5.613,5.613,0,0,1-.6,2.138,6.4,6.4,0,0,1-1.1,1.3.444.444,0,0,0-.151.333v.6a.444.444,0,0,0,.444.444H14.155a.444.444,0,0,0,.444-.444v-.6a.444.444,0,0,0-.151-.333Z" fill="#656666"/>
    <path id="Path_11" data-name="Path 11" d="M15.556,2.667A2.223,2.223,0,1,1,13.333.444,2.222,2.222,0,0,1,15.556,2.667Z" fill="#656666"/>
  </g>
</svg>
