<?xml version="1.0" standalone="no"?>
<!DOCTYPE svg PUBLIC "-//W3C//DTD SVG 20010904//EN"
 "http://www.w3.org/TR/2001/REC-SVG-20010904/DTD/svg10.dtd">
<svg version="1.0" xmlns="http://www.w3.org/2000/svg"
 width="110.000000pt" height="28.000000pt" viewBox="0 0 110.000000 28.000000"
 preserveAspectRatio="xMidYMid meet">

<g transform="translate(0.000000,28.000000) scale(0.100000,-0.100000)"
fill="#000000" stroke="none">
<path d="M533 265 c-37 -16 -53 -42 -53 -87 0 -71 69 -114 133 -83 75 35 75
135 2 170 -39 18 -41 18 -82 0z m91 -31 c9 -8 16 -20 16 -25 0 -12 -27 -12
-35 1 -9 15 -41 12 -55 -5 -15 -19 -6 -61 16 -69 9 -4 24 0 34 9 16 15 40 20
40 9 0 -18 -23 -43 -45 -48 -25 -6 -64 7 -77 28 -14 20 -8 79 9 98 20 22 76
24 97 2z"/>
<path d="M900 255 c0 -27 80 -177 93 -173 16 5 99 166 92 178 -3 6 -46 10 -96
10 -73 0 -89 -3 -89 -15z m150 -20 c0 -8 -9 -15 -20 -15 -18 0 -20 -7 -20 -55
0 -42 -3 -55 -15 -55 -12 0 -15 13 -15 55 0 48 -3 55 -19 55 -21 0 -34 13 -24
24 3 3 30 6 60 6 40 0 53 -4 53 -15z"/>
<path d="M20 221 c-13 -25 -13 -27 6 -45 8 -9 27 -16 41 -16 35 0 24 -24 -13
-28 -51 -6 -52 -22 -1 -22 35 0 49 5 56 18 14 26 -13 62 -45 62 -36 0 -25 24
12 28 51 6 52 22 1 22 -36 0 -49 -4 -57 -19z"/>
<path d="M140 214 c0 -29 56 -104 78 -104 12 0 12 4 -2 22 -28 39 -29 48 -7
72 24 25 27 36 9 36 -7 0 -22 -12 -35 -27 l-22 -28 -1 28 c0 15 -4 27 -10 27
-5 0 -10 -12 -10 -26z"/>
<path d="M250 175 c0 -51 3 -65 15 -65 12 0 15 14 15 65 0 51 -3 65 -15 65
-12 0 -15 -14 -15 -65z"/>
<path d="M301 175 l2 -65 39 0 c24 0 37 4 33 10 -3 6 -16 10 -28 10 -20 0 -22
4 -19 55 3 46 1 55 -12 55 -14 0 -16 -11 -15 -65z"/>
<path d="M390 190 c0 -38 4 -50 15 -50 11 0 15 12 15 50 0 38 -4 50 -15 50
-11 0 -15 -12 -15 -50z"/>
<path d="M770 209 c0 -5 9 -9 20 -9 11 0 20 2 20 4 0 2 -9 6 -20 9 -11 3 -20
1 -20 -4z"/>
<path d="M140 141 c0 -17 5 -31 10 -31 6 0 10 11 10 24 0 14 -4 28 -10 31 -6
4 -10 -7 -10 -24z"/>
<path d="M395 120 c-4 -6 10 -10 35 -10 25 0 39 4 35 10 -3 6 -19 10 -35 10
-16 0 -32 -4 -35 -10z"/>
<path d="M216 33 c-3 -3 -35 -5 -71 -4 -41 2 -65 -2 -65 -8 0 -7 27 -11 70
-11 49 0 70 4 70 13 0 8 3 8 8 2 9 -14 62 -18 62 -5 0 6 -6 10 -12 11 -7 0
-22 2 -34 4 -12 3 -24 2 -28 -2z"/>
<path d="M310 32 c-6 -2 -10 -7 -10 -12 0 -12 94 -8 102 4 6 8 8 8 8 0 0 -7
54 -11 170 -11 95 -1 170 3 170 8 0 5 -6 9 -12 10 -7 0 -21 2 -30 4 -10 2 -20
-1 -24 -6 -3 -5 -10 -6 -16 -3 -11 7 -339 12 -358 6z"/>
<path d="M848 32 c-16 -2 -28 -9 -28 -15 0 -7 -4 -6 -10 3 -5 8 -12 11 -16 7
-13 -12 4 -19 47 -20 24 0 44 4 46 10 5 15 -7 19 -39 15z"/>
<path d="M913 27 c-9 -14 4 -19 52 -21 42 -2 65 7 52 21 -9 8 -99 9 -104 0z"/>
<path d="M55 20 c-3 -5 -1 -10 4 -10 6 0 11 5 11 10 0 6 -2 10 -4 10 -3 0 -8
-4 -11 -10z"/>
<path d="M760 20 c0 -5 5 -10 10 -10 6 0 10 5 10 10 0 6 -4 10 -10 10 -5 0
-10 -4 -10 -10z"/>
</g>
</svg>
