<svg id="Layer_17" data-name="Layer 17" xmlns="http://www.w3.org/2000/svg" viewBox="0 0 106.5 27.5"><defs><style>.cls-1{fill:#0171bb;}.cls-2,.cls-8{font-size:20px;}.cls-2{font-family:Disorder-Regular, Disorder;letter-spacing:-0.01em;}.cls-3{letter-spacing:-0.03em;}.cls-4{letter-spacing:-0.02em;}.cls-5{letter-spacing:-0.01em;}.cls-6{letter-spacing:0em;}.cls-7{fill:#32a3ed;}.cls-10,.cls-11,.cls-8{fill:#fff;}.cls-8{font-family:Harabara;}.cls-9{fill:#434343;}.cls-11{font-size:2.8px;font-family:ArialMT, Arial;letter-spacing:0.3em;}.cls-12{letter-spacing:0.24em;}</style></defs><path class="cls-1" d="M99,19.2a2.6,2.6,0,0,1-4.7,0L91,12.4,87.2,4.8A2.5,2.5,0,0,1,89.5,1h14.9c1.4,0,2.6,2.1,1.9,3.7l-3.9,7.7Z" transform="translate(0 -0.9)"/><text class="cls-2" transform="translate(0 17.4)">S<tspan class="cls-3" x="11.9" y="0">K</tspan><tspan class="cls-4" x="23.1" y="0">I</tspan><tspan class="cls-5" x="28.2" y="0">L</tspan><tspan class="cls-6" x="36.8" y="0">L</tspan></text><rect class="cls-7" x="66.4" width="19.7" height="19.75" rx="3.2"/><circle class="cls-1" cx="55.7" cy="9.8" r="9.8"/><text class="cls-8" transform="translate(49.9 16.7)">C</text><text class="cls-8" transform="translate(71.4 16.7)">E</text><text class="cls-8" transform="translate(91.3 16.6)">T</text><path class="cls-9" d="M97.6,28.3H10.5L3.6,26.8c-.2,0-.2-.3,0-.4l6.9-1.7H97.6a1.8,1.8,0,0,1,1.8,1.8h0A1.8,1.8,0,0,1,97.6,28.3Z" transform="translate(0 -0.9)"/><rect class="cls-10" x="86.7" y="23.8" width="2.3" height="3.58"/><polygon class="cls-10" points="7 26.7 7.6 26.8 7.6 24.6 7 24.7 7 26.7"/><text class="cls-11" transform="translate(18.7 26.6)">The National Institute for NR<tspan class="cls-12" x="59.7" y="0">A</tspan></text></svg>