<?xml version="1.0" encoding="utf-8"?>
<!-- Generator: Adobe Illustrator 24.3.0, SVG Export Plug-In . SVG Version: 6.00 Build 0)  -->
<svg version="1.1" id="Layer_17" xmlns="http://www.w3.org/2000/svg" xmlns:xlink="http://www.w3.org/1999/xlink" x="0px" y="0px"
	 viewBox="0 0 107.2 29.4" enable-background="new 0 0 107.2 29.4" xml:space="preserve">
<path fill="#0171BB" d="M99,19.2c-1,2-3.7,2-4.7,0L91,12.4l-3.8-7.7C86.2,2.9,87.4,1,89.5,1h7.1h7.7c1.4,0,2.6,2.1,1.9,3.7l-3.9,7.7
	L99,19.2z"/>
<g>
	<path d="M0.9,8.5C0.9,8,1,7.5,1.2,7c0.2-0.5,0.5-0.9,0.9-1.3s0.8-0.6,1.3-0.9c0.5-0.2,1-0.3,1.6-0.3h6V6c0,0.3-0.1,0.5-0.3,0.7
		S10.2,7,9.9,7h-5C4.5,7,4.1,7.2,3.9,7.5S3.4,8.1,3.4,8.6c0,0.4,0.1,0.8,0.4,1.1s0.6,0.4,1.1,0.4h2c0.6,0,1.1,0.1,1.6,0.3
		c0.5,0.2,0.9,0.5,1.3,0.9c0.4,0.4,0.6,0.8,0.9,1.3c0.2,0.5,0.3,1,0.3,1.6s-0.1,1.1-0.3,1.6c-0.2,0.5-0.5,0.9-0.9,1.3
		c-0.4,0.4-0.8,0.6-1.3,0.9c-0.5,0.2-1,0.3-1.6,0.3h-6v-1.5c0-0.3,0.1-0.5,0.3-0.7c0.2-0.2,0.4-0.3,0.7-0.3h5c0.4,0,0.8-0.1,1.1-0.4
		c0.3-0.3,0.4-0.6,0.4-1.1c0-0.4-0.1-0.8-0.4-1.1c-0.3-0.3-0.7-0.4-1.1-0.4h-2c-0.6,0-1.1-0.1-1.6-0.3c-0.5-0.2-0.9-0.5-1.3-0.9
		s-0.6-0.8-0.9-1.3C1,9.6,0.9,9.1,0.9,8.5z"/>
	<path d="M23.2,4.6l-5.3,6.8l5.3,6.8h-2.7c-0.3,0-0.6-0.1-0.8-0.4l-6.5-8.3V5.6c0-0.3,0.1-0.5,0.3-0.7c0.2-0.2,0.4-0.3,0.7-0.3h1.5
		V10l4-5.1c0.1-0.1,0.2-0.2,0.3-0.3c0.1-0.1,0.3-0.1,0.4-0.1H23.2z M13.1,10.2l2.5,3.2v4.7h-1.5c-0.3,0-0.5-0.1-0.7-0.3
		c-0.2-0.2-0.3-0.4-0.3-0.7V10.2z"/>
	<path d="M24.4,5c0.1-0.1,0.2-0.3,0.4-0.4c0.2-0.1,0.3-0.1,0.5-0.1h1.5v13.5h-1.5c-0.3,0-0.5-0.1-0.7-0.3c-0.2-0.2-0.3-0.4-0.3-0.7
		V5.5C24.3,5.4,24.3,5.2,24.4,5z"/>
	<path d="M31.9,15.1h-2.5V5.5c0-0.3,0.1-0.5,0.3-0.7c0.2-0.2,0.4-0.3,0.7-0.3h0.5h1v1V15.1z M35.5,15.6c0.3,0,0.5,0.1,0.7,0.3
		c0.2,0.2,0.3,0.4,0.3,0.7v1.5h-6.1c-0.3,0-0.5-0.1-0.7-0.3c-0.2-0.2-0.3-0.4-0.3-0.7v-1.5h2.5H35.5z"/>
	<path d="M40.5,15.1H38V5.5c0-0.3,0.1-0.5,0.3-0.7c0.2-0.2,0.4-0.3,0.7-0.3h0.5h1v1V15.1z M44.2,15.6c0.3,0,0.5,0.1,0.7,0.3
		c0.2,0.2,0.3,0.4,0.3,0.7v1.5H39c-0.3,0-0.5-0.1-0.7-0.3c-0.2-0.2-0.3-0.4-0.3-0.7v-1.5h2.5H44.2z"/>
</g>
<path fill="#32A3ED" d="M82.9,20.6l-13.3,0c-1.8,0-3.2-1.4-3.2-3.2V4.1c0-1.8,1.4-3.2,3.2-3.2l13.3,0c1.8,0,3.2,1.4,3.2,3.2v13.3
	C86.1,19.2,84.7,20.6,82.9,20.6z"/>
<circle fill="#0171BB" cx="55.8" cy="10.7" r="9.8"/>
<g>
	<path fill="#FFFFFF" d="M61.9,13c-0.1,1.6-0.7,2.8-1.8,3.7c-1.1,0.9-2.5,1.3-4.2,1.3c-2,0-3.6-0.6-4.6-1.8
		c-1.1-1.2-1.6-2.9-1.6-5.2c0-2.3,0.5-4.1,1.6-5.3c1.1-1.2,2.7-1.8,4.8-1.8c1.7,0,3.1,0.4,4.1,1.3c1,0.8,1.5,2,1.6,3.5h-1.7
		c-0.6,0-1.1-0.3-1.3-0.8c-0.2-0.3-0.4-0.6-0.7-0.9c-0.5-0.4-1.2-0.6-2.1-0.6c-1.2,0-2.1,0.4-2.8,1.2c-0.6,0.8-0.9,1.9-0.9,3.4
		c0,1.5,0.3,2.6,0.9,3.4c0.6,0.8,1.5,1.2,2.7,1.2c0.8,0,1.5-0.2,2.1-0.6c0.5-0.4,0.8-1,1.1-1.9H61.9z"/>
</g>
<g>
	<path fill="#FFFFFF" d="M71.4,17.6v-12c0-0.4,0.1-0.7,0.4-1s0.6-0.4,1-0.4h8.4v2.3h-7v2.9h5.2v0.9c0,0.4-0.1,0.7-0.4,1
		s-0.6,0.4-1,0.4h-3.8v3.4h7v2.5H71.4z"/>
</g>
<g>
	<path fill="#FFFFFF" d="M95.3,17.5V6.4h-4v-1c0-0.4,0.1-0.7,0.4-1s0.6-0.4,1-0.4h9.3v2.4h-3.9v11.1H95.3z"/>
</g>
<path fill="#434343" d="M97.6,28.3H10.5l-6.9-1.5c-0.2,0-0.2-0.3,0-0.4l6.9-1.7h87.1c1,0,1.8,0.8,1.8,1.8v0
	C99.4,27.5,98.6,28.3,97.6,28.3z"/>
<rect x="86.7" y="24.7" fill="#FFFFFF" width="2.3" height="3.6"/>
<polygon fill="#FFFFFF" points="7,27.5 7.6,27.7 7.6,25.4 7,25.6 "/>
<text transform="matrix(1 0 0 1 18.75 27.5096)" fill="#FFFFFF" font-family="'ArialMT'" font-size="2.8px">The National Institute for NRA</text>
</svg>
